<svg fill="#000000" xmlns="http://www.w3.org/2000/svg" viewBox="0 2.05 24 19.9">   <path d="M 23.944 7.493 C 23.945 7.492 23.946 7.491 23.947 7.49 C 23.948 7.487 23.949 7.485 23.951 7.482 C 23.954 7.476 23.958 7.47 23.961 7.463 C 23.963 7.459 23.965 7.455 23.967 7.451 C 23.97 7.445 23.973 7.438 23.975 7.432 C 23.977 7.427 23.979 7.422 23.981 7.417 C 23.983 7.412 23.985 7.406 23.986 7.4 C 23.988 7.394 23.989 7.389 23.991 7.383 C 23.992 7.378 23.993 7.372 23.994 7.367 C 23.995 7.361 23.996 7.354 23.997 7.348 C 23.998 7.343 23.998 7.338 23.999 7.333 C 23.999 7.326 23.999 7.319 24 7.312 C 24 7.309 24 7.306 24 7.303 C 24 7.301 24 7.3 24 7.298 C 24 7.291 23.999 7.285 23.999 7.278 C 23.998 7.273 23.998 7.267 23.997 7.262 C 23.997 7.256 23.996 7.251 23.995 7.246 C 23.994 7.239 23.993 7.233 23.992 7.227 C 23.991 7.223 23.989 7.218 23.988 7.214 C 23.986 7.207 23.985 7.2 23.983 7.194 C 23.981 7.19 23.98 7.186 23.978 7.182 C 23.976 7.175 23.973 7.169 23.971 7.162 C 23.969 7.158 23.966 7.154 23.964 7.149 C 23.961 7.144 23.959 7.138 23.956 7.132 C 23.953 7.127 23.95 7.122 23.946 7.117 C 23.944 7.113 23.941 7.108 23.938 7.104 C 23.934 7.098 23.93 7.093 23.926 7.088 C 23.923 7.084 23.921 7.081 23.918 7.077 C 23.913 7.072 23.909 7.067 23.904 7.062 C 23.901 7.059 23.898 7.055 23.894 7.052 C 23.89 7.048 23.885 7.044 23.881 7.039 C 23.877 7.036 23.872 7.032 23.868 7.028 C 23.864 7.025 23.86 7.022 23.855 7.019 C 23.85 7.015 23.844 7.011 23.839 7.007 C 23.837 7.006 23.836 7.005 23.834 7.004 L 20.829 5.126 C 20.827 5.125 20.824 5.124 20.822 5.122 C 20.818 5.12 20.814 5.117 20.81 5.115 C 20.807 5.114 20.805 5.112 20.802 5.111 C 20.798 5.109 20.793 5.107 20.789 5.105 C 20.786 5.103 20.782 5.102 20.779 5.1 C 20.776 5.099 20.774 5.098 20.771 5.097 C 20.766 5.095 20.76 5.093 20.754 5.091 C 20.752 5.09 20.75 5.089 20.748 5.089 C 20.747 5.089 20.747 5.088 20.746 5.088 C 20.744 5.088 20.742 5.087 20.74 5.086 C 20.733 5.084 20.726 5.083 20.72 5.081 C 20.717 5.081 20.715 5.08 20.712 5.079 C 20.71 5.079 20.709 5.079 20.707 5.079 C 20.7 5.077 20.693 5.076 20.686 5.075 C 20.681 5.075 20.676 5.074 20.671 5.074 C 20.665 5.073 20.659 5.073 20.653 5.073 C 20.647 5.073 20.642 5.072 20.636 5.073 C 20.631 5.073 20.626 5.073 20.62 5.073 C 20.618 5.073 20.616 5.073 20.614 5.074 C 20.613 5.074 20.611 5.074 20.61 5.074 C 20.607 5.074 20.604 5.075 20.601 5.075 C 20.597 5.075 20.592 5.076 20.587 5.077 C 20.585 5.077 20.584 5.077 20.582 5.078 C 20.58 5.078 20.578 5.078 20.576 5.079 C 20.573 5.079 20.571 5.08 20.568 5.08 C 20.563 5.081 20.558 5.083 20.554 5.084 C 20.548 5.085 20.542 5.087 20.536 5.089 C 20.531 5.091 20.525 5.092 20.52 5.094 C 20.517 5.096 20.513 5.097 20.509 5.098 C 20.508 5.099 20.506 5.1 20.505 5.1 C 20.499 5.103 20.494 5.105 20.488 5.108 C 20.485 5.11 20.481 5.111 20.477 5.113 C 20.477 5.113 20.477 5.114 20.476 5.114 L 15.095 7.984 L 11.897 4.074 C 11.897 4.074 11.897 4.074 11.896 4.074 C 11.895 4.073 11.894 4.071 11.893 4.07 C 11.891 4.067 11.888 4.065 11.886 4.062 C 11.881 4.056 11.876 4.051 11.87 4.045 C 11.867 4.042 11.864 4.039 11.86 4.037 C 11.855 4.032 11.85 4.027 11.845 4.023 C 11.84 4.019 11.834 4.015 11.829 4.011 C 11.829 4.011 11.828 4.011 11.828 4.01 C 11.824 4.008 11.821 4.005 11.817 4.003 C 11.812 3.999 11.806 3.996 11.801 3.993 C 11.796 3.99 11.792 3.988 11.788 3.985 C 11.782 3.983 11.777 3.98 11.771 3.978 C 11.766 3.975 11.761 3.973 11.756 3.971 C 11.751 3.969 11.746 3.967 11.741 3.966 C 11.735 3.963 11.729 3.961 11.723 3.959 C 11.723 3.959 11.722 3.959 11.721 3.959 C 11.716 3.957 11.71 3.956 11.705 3.955 C 11.7 3.954 11.695 3.953 11.691 3.952 C 11.688 3.951 11.686 3.951 11.684 3.95 L 1.166 2.072 C 1.162 2.071 1.159 2.071 1.155 2.07 C 1.149 2.07 1.143 2.069 1.136 2.068 C 1.13 2.067 1.125 2.067 1.119 2.067 C 1.113 2.067 1.108 2.067 1.102 2.067 C 1.096 2.067 1.09 2.067 1.084 2.067 C 1.079 2.067 1.073 2.068 1.068 2.068 C 1.062 2.069 1.056 2.07 1.05 2.071 C 1.044 2.072 1.039 2.072 1.034 2.073 C 1.028 2.075 1.022 2.076 1.017 2.077 C 1.011 2.079 1.006 2.08 1 2.082 C 0.995 2.084 0.99 2.085 0.985 2.087 C 0.979 2.089 0.973 2.091 0.968 2.094 C 0.963 2.096 0.958 2.098 0.953 2.101 C 0.948 2.103 0.942 2.106 0.937 2.108 C 0.932 2.111 0.927 2.114 0.922 2.117 C 0.917 2.12 0.913 2.123 0.908 2.126 C 0.902 2.13 0.897 2.134 0.892 2.138 C 0.889 2.14 0.886 2.141 0.884 2.144 C 0.882 2.145 0.881 2.146 0.88 2.147 C 0.875 2.151 0.87 2.156 0.865 2.16 C 0.861 2.164 0.857 2.167 0.854 2.17 C 0.849 2.175 0.845 2.18 0.841 2.184 C 0.837 2.188 0.834 2.192 0.831 2.196 C 0.827 2.201 0.823 2.206 0.82 2.211 C 0.817 2.215 0.813 2.219 0.81 2.224 C 0.807 2.229 0.804 2.234 0.801 2.239 C 0.798 2.244 0.795 2.249 0.793 2.254 C 0.79 2.259 0.788 2.264 0.785 2.269 C 0.783 2.274 0.78 2.279 0.778 2.285 C 0.776 2.29 0.774 2.295 0.772 2.3 C 0.77 2.306 0.768 2.312 0.766 2.318 C 0.765 2.323 0.764 2.328 0.762 2.333 C 0.761 2.339 0.759 2.345 0.758 2.352 C 0.758 2.353 0.757 2.355 0.757 2.357 C 0.756 2.36 0.756 2.364 0.756 2.367 C 0.755 2.374 0.754 2.38 0.753 2.386 C 0.753 2.392 0.752 2.398 0.752 2.403 C 0.752 2.409 0.752 2.414 0.752 2.42 C 0.752 2.426 0.752 2.432 0.752 2.438 C 0.753 2.444 0.753 2.449 0.753 2.454 C 0.754 2.46 0.755 2.466 0.756 2.472 C 0.757 2.478 0.758 2.483 0.759 2.488 C 0.76 2.494 0.761 2.5 0.763 2.506 C 0.764 2.511 0.766 2.516 0.767 2.522 C 0.769 2.527 0.771 2.532 0.773 2.538 C 0.775 2.543 0.777 2.549 0.779 2.554 C 0.781 2.559 0.783 2.564 0.786 2.569 C 0.788 2.575 0.791 2.58 0.794 2.585 C 0.796 2.59 0.799 2.595 0.802 2.6 C 0.805 2.605 0.808 2.61 0.811 2.614 C 0.815 2.62 0.819 2.625 0.823 2.63 C 0.825 2.633 0.826 2.636 0.829 2.639 L 3.076 5.448 L 0.352 5.448 C 0.349 5.448 0.346 5.448 0.343 5.448 C 0.336 5.449 0.33 5.449 0.323 5.449 C 0.318 5.45 0.312 5.451 0.306 5.451 C 0.301 5.452 0.295 5.453 0.29 5.454 C 0.284 5.455 0.278 5.456 0.272 5.458 C 0.267 5.459 0.262 5.46 0.257 5.461 C 0.251 5.463 0.245 5.465 0.239 5.467 C 0.234 5.469 0.229 5.47 0.225 5.472 C 0.219 5.474 0.213 5.477 0.207 5.479 C 0.202 5.482 0.198 5.484 0.193 5.486 C 0.188 5.489 0.183 5.492 0.178 5.494 C 0.173 5.497 0.167 5.501 0.162 5.504 C 0.158 5.507 0.154 5.51 0.149 5.512 C 0.144 5.516 0.139 5.52 0.134 5.524 C 0.13 5.527 0.126 5.53 0.123 5.534 C 0.118 5.538 0.113 5.542 0.109 5.546 C 0.105 5.55 0.101 5.554 0.097 5.558 C 0.093 5.562 0.089 5.566 0.086 5.57 C 0.081 5.575 0.077 5.581 0.073 5.586 C 0.071 5.588 0.069 5.59 0.067 5.593 C 0.066 5.595 0.066 5.596 0.064 5.598 C 0.06 5.603 0.057 5.609 0.053 5.615 C 0.051 5.619 0.048 5.623 0.046 5.627 C 0.042 5.633 0.039 5.639 0.036 5.645 C 0.034 5.649 0.032 5.654 0.03 5.659 C 0.027 5.664 0.025 5.67 0.023 5.676 C 0.021 5.681 0.019 5.686 0.017 5.691 C 0.016 5.696 0.014 5.702 0.013 5.707 C 0.011 5.713 0.01 5.719 0.008 5.725 C 0.007 5.73 0.006 5.735 0.006 5.74 C 0.004 5.746 0.003 5.753 0.003 5.76 C 0.002 5.764 0.002 5.769 0.001 5.774 C 0.001 5.781 0 5.788 0 5.795 C 0 5.797 0 5.798 0 5.8 C 0 5.803 0 5.806 0 5.81 C 0.001 5.816 0.001 5.823 0.001 5.829 C 0.002 5.835 0.003 5.84 0.003 5.846 C 0.004 5.851 0.005 5.857 0.006 5.862 C 0.007 5.869 0.008 5.875 0.01 5.881 C 0.011 5.886 0.012 5.891 0.013 5.895 C 0.015 5.902 0.017 5.908 0.019 5.914 C 0.021 5.919 0.022 5.923 0.024 5.928 C 0.026 5.934 0.029 5.939 0.031 5.945 C 0.034 5.95 0.036 5.955 0.039 5.96 C 0.041 5.965 0.044 5.97 0.046 5.975 C 0.049 5.98 0.053 5.985 0.056 5.99 C 0.059 5.995 0.061 5.999 0.064 6.003 C 0.068 6.008 0.072 6.013 0.076 6.018 C 0.079 6.022 0.082 6.026 0.086 6.03 C 0.09 6.035 0.094 6.039 0.098 6.044 C 0.102 6.048 0.106 6.052 0.11 6.056 C 0.114 6.059 0.118 6.063 0.123 6.067 C 0.128 6.071 0.133 6.075 0.138 6.079 C 0.14 6.081 0.142 6.083 0.145 6.085 L 8.238 11.971 L 6.768 21.523 C 6.768 21.524 6.768 21.525 6.768 21.526 L 6.767 21.528 C 6.767 21.529 6.767 21.53 6.767 21.532 C 6.766 21.542 6.764 21.552 6.764 21.562 C 6.764 21.566 6.764 21.57 6.764 21.574 C 6.764 21.581 6.763 21.588 6.764 21.596 C 6.764 21.602 6.765 21.607 6.765 21.613 C 6.766 21.619 6.766 21.624 6.767 21.629 C 6.768 21.636 6.769 21.643 6.77 21.649 C 6.771 21.654 6.772 21.658 6.773 21.663 C 6.775 21.669 6.777 21.676 6.779 21.683 C 6.78 21.687 6.781 21.691 6.782 21.695 C 6.785 21.701 6.787 21.707 6.789 21.713 C 6.791 21.718 6.793 21.723 6.795 21.727 C 6.798 21.732 6.8 21.737 6.803 21.742 C 6.805 21.748 6.808 21.753 6.811 21.758 C 6.813 21.762 6.816 21.766 6.819 21.77 C 6.822 21.776 6.826 21.781 6.83 21.787 C 6.832 21.79 6.835 21.794 6.838 21.797 C 6.842 21.803 6.846 21.808 6.851 21.814 C 6.854 21.817 6.857 21.82 6.86 21.823 C 6.865 21.828 6.869 21.833 6.874 21.838 C 6.878 21.841 6.882 21.845 6.886 21.848 C 6.891 21.852 6.895 21.856 6.9 21.86 C 6.906 21.864 6.912 21.868 6.918 21.872 C 6.921 21.875 6.924 21.877 6.928 21.879 C 6.936 21.885 6.945 21.889 6.954 21.894 C 6.955 21.895 6.957 21.896 6.958 21.896 C 6.958 21.896 6.958 21.896 6.958 21.896 C 6.97 21.902 6.982 21.908 6.995 21.912 C 6.998 21.913 7.001 21.914 7.005 21.915 C 7.013 21.918 7.022 21.921 7.031 21.923 C 7.037 21.924 7.043 21.925 7.049 21.927 C 7.053 21.927 7.057 21.929 7.062 21.929 C 7.063 21.93 7.065 21.929 7.066 21.93 C 7.083 21.932 7.099 21.933 7.115 21.933 C 7.115 21.933 7.116 21.933 7.116 21.933 C 7.116 21.933 7.116 21.933 7.116 21.933 C 7.13 21.933 7.145 21.932 7.159 21.93 C 7.162 21.93 7.165 21.93 7.167 21.929 C 7.196 21.925 7.225 21.917 7.251 21.906 C 7.254 21.905 7.256 21.904 7.259 21.903 C 7.272 21.897 7.284 21.891 7.296 21.883 C 7.298 21.882 7.301 21.88 7.303 21.879 C 7.313 21.873 7.323 21.866 7.332 21.858 C 7.335 21.856 7.338 21.854 7.34 21.852 C 7.351 21.843 7.361 21.834 7.37 21.824 C 7.373 21.822 7.375 21.819 7.377 21.816 C 7.387 21.806 7.396 21.795 7.404 21.783 C 7.404 21.783 7.404 21.783 7.405 21.782 C 7.414 21.769 7.421 21.756 7.429 21.742 C 7.429 21.741 7.43 21.74 7.431 21.739 L 10.003 16.593 L 18.528 12.887 C 18.53 12.886 18.532 12.884 18.535 12.883 C 18.541 12.88 18.548 12.877 18.555 12.873 C 18.555 12.873 18.556 12.873 18.557 12.872 C 18.558 12.872 18.559 12.871 18.56 12.871 C 18.562 12.869 18.565 12.868 18.567 12.866 C 18.572 12.863 18.578 12.86 18.583 12.856 C 18.586 12.854 18.59 12.852 18.593 12.85 C 18.594 12.849 18.595 12.848 18.597 12.847 C 18.6 12.844 18.604 12.841 18.608 12.838 C 18.609 12.837 18.61 12.837 18.611 12.836 C 18.612 12.835 18.612 12.835 18.613 12.834 C 18.617 12.831 18.62 12.828 18.623 12.825 C 18.626 12.823 18.629 12.82 18.632 12.817 C 18.632 12.817 18.632 12.817 18.633 12.816 C 18.634 12.815 18.635 12.814 18.637 12.813 C 18.638 12.812 18.638 12.811 18.639 12.81 C 18.642 12.807 18.644 12.805 18.646 12.802 C 18.649 12.799 18.652 12.796 18.655 12.793 C 18.658 12.789 18.66 12.786 18.663 12.783 C 18.665 12.781 18.666 12.779 18.667 12.777 C 18.669 12.776 18.67 12.774 18.671 12.773 C 18.672 12.771 18.673 12.769 18.674 12.768 C 18.675 12.767 18.675 12.767 18.675 12.766 C 18.678 12.762 18.681 12.758 18.684 12.755 C 18.684 12.753 18.685 12.752 18.686 12.751 C 18.689 12.746 18.691 12.742 18.694 12.737 C 18.696 12.733 18.699 12.729 18.701 12.725 C 18.701 12.725 18.701 12.724 18.701 12.724 C 18.701 12.724 18.702 12.723 18.702 12.722 C 18.705 12.717 18.707 12.712 18.709 12.707 C 18.711 12.703 18.713 12.698 18.715 12.694 C 18.715 12.693 18.715 12.693 18.716 12.692 C 18.718 12.686 18.72 12.681 18.722 12.675 C 18.722 12.674 18.722 12.673 18.722 12.673 C 18.723 12.672 18.723 12.671 18.724 12.67 L 18.725 12.665 C 18.725 12.665 18.725 12.665 18.725 12.665 L 20.307 7.655 L 23.647 7.655 C 23.647 7.655 23.647 7.656 23.648 7.656 C 23.648 7.656 23.649 7.655 23.65 7.655 C 23.663 7.655 23.676 7.654 23.688 7.653 C 23.692 7.653 23.696 7.652 23.699 7.651 C 23.709 7.65 23.719 7.648 23.729 7.646 C 23.733 7.645 23.737 7.644 23.74 7.643 C 23.75 7.64 23.76 7.637 23.77 7.633 C 23.773 7.632 23.776 7.631 23.779 7.63 C 23.792 7.625 23.804 7.619 23.816 7.613 C 23.816 7.613 23.817 7.613 23.817 7.612 C 23.828 7.606 23.839 7.599 23.849 7.592 C 23.853 7.589 23.857 7.586 23.861 7.583 C 23.868 7.578 23.875 7.573 23.881 7.567 C 23.885 7.563 23.889 7.56 23.892 7.557 C 23.901 7.548 23.909 7.54 23.917 7.53 C 23.918 7.529 23.919 7.528 23.92 7.527 C 23.929 7.516 23.937 7.505 23.944 7.493 Z M 20.046 6.141 L 18.248 11.836 L 15.55 8.539 L 20.046 6.141 Z M 1.964 2.93 L 11.137 4.568 L 8.516 11.12 L 1.964 2.93 Z M 17.593 12.149 L 9.124 11.498 L 11.73 4.982 L 17.593 12.149 Z M 9.987 15.832 L 9.079 12.201 L 16.946 12.806 L 9.987 15.832 Z M 9.372 16.28 L 7.805 19.414 L 8.701 13.593 L 9.372 16.28 Z M 6.706 9.986 L 1.435 6.152 L 3.64 6.152 L 6.706 9.986 Z M 20.841 5.964 L 22.42 6.951 L 20.529 6.951 L 20.841 5.964 Z"></path> </svg>