<?xml version="1.0" encoding="utf-8"?>
<svg viewBox="2 3 19 19" width="19" height="19" xmlns="http://www.w3.org/2000/svg">
  <g transform="matrix(1, 0, 0, 1, 2, 3)" style="transform-origin: 5e-06px 2e-06px;">
    <path d="M 18.468 8.029 L 10.909 8.029 L 10.909 0.468 L 8.029 0.468 L 8.029 8.029 L 0.468 8.029 L 0.468 10.909 L 8.029 10.909 L 8.029 18.468 L 10.909 18.468 L 10.909 10.909 L 18.468 10.909 L 18.468 8.029 Z" style="transform-origin: 9.469px 9.469px;"/>
    <path d="M 18.548 11.4 L 11.4 11.4 L 11.4 18.548 C 11.4 18.796 11.196 19 10.948 19 L 8.051 19 C 7.802 19 7.6 18.796 7.6 18.548 L 7.6 11.4 L 0.451 11.4 C 0.202 11.4 0 11.196 0 10.948 L 0 8.051 C 0 7.802 0.202 7.6 0.451 7.6 L 7.6 7.6 L 7.6 0.451 C 7.6 0.202 7.802 0 8.051 0 L 10.948 0 C 11.196 0 11.4 0.202 11.4 0.451 L 11.4 7.6 L 18.548 7.6 C 18.796 7.6 19 7.802 19 8.051 L 19 10.948 C 19 11.196 18.796 11.4 18.548 11.4 Z M 18.094 8.504 L 10.948 8.504 C 10.698 8.504 10.494 8.301 10.494 8.051 L 10.494 0.904 L 8.504 0.904 L 8.504 8.051 C 8.504 8.301 8.301 8.504 8.051 8.504 L 0.904 8.504 L 0.904 10.494 L 8.051 10.494 C 8.301 10.494 8.504 10.698 8.504 10.948 L 8.504 18.094 L 10.494 18.094 L 10.494 10.948 C 10.494 10.698 10.698 10.494 10.948 10.494 L 18.094 10.494 L 18.094 8.504 Z" style="transform-origin: 9.5px 9.5px;"/>
  </g>
</svg>

