<?xml version="1.0" encoding="utf-8"?>
<svg xmlns="http://www.w3.org/2000/svg" viewBox="2 2 20 20" width="20px" height="20px">
  <path d="M 12 18.192 C 15.416 18.192 18.192 15.416 18.192 12 C 18.192 8.584 15.416 5.808 12 5.808 C 8.584 5.808 5.808 8.584 5.808 12 C 5.808 15.416 8.584 18.192 12 18.192 Z M 12 22 C 17.524 22 22 17.524 22 12 C 22 6.476 17.524 2 12 2 C 6.476 2 2 6.476 2 12 C 2 17.524 6.476 22 12 22 Z" style="fill: rgb(255, 255, 255); stroke-width: 0px;"/>
  <path d="M 19 12 C 19 13.894 18.187 15.712 16.95 16.95 C 15.713 18.187 13.895 19 12 19 C 10.106 19 8.288 18.187 7.051 16.95 C 5.814 15.712 5 13.894 5 12 C 5 10.106 5.814 8.288 7.051 7.05 C 8.288 5.813 10.106 5 12 5 C 13.895 5 15.713 5.813 16.95 7.05 C 18.187 8.288 19 10.106 19 12 Z" style="fill: rgb(0, 0, 0); stroke-width: 0px;"/>
</svg>